{
	"asset":{
		"generator":"Khronos glTF Blender I/O v4.5.49",
		"version":"2.0"
	},
	"scene":0,
	"scenes":[
		{
			"name":"Scene",
			"nodes":[
				0,
				1,
				2,
				3,
				4,
				5,
				6,
				7,
				8
			]
		}
	],
	"nodes":[
		{
			"mesh":0,
			"name":"CUBO 4",
			"rotation":[
				0,
				-0.7071068286895752,
				0,
				0.7071068286895752
			],
			"scale":[
				1.0622142553329468,
				0.9113999009132385,
				1.053868055343628
			],
			"translation":[
				-105.33773040771484,
				52.12725067138672,
				52.25735092163086
			]
		},
		{
			"name":"TextureField"
		},
		{
			"mesh":1,
			"name":"Cube.001",
			"rotation":[
				0,
				-0.7071068286895752,
				0,
				0.7071068286895752
			],
			"scale":[
				1.0622142553329468,
				0.9113999009132385,
				1.053868055343628
			],
			"translation":[
				-105.33773040771484,
				52.12725067138672,
				52.25735092163086
			]
		},
		{
			"mesh":2,
			"name":"CUBO 2",
			"rotation":[
				0,
				-0.7071068286895752,
				0,
				0.7071068286895752
			],
			"scale":[
				1.0622142553329468,
				0.9113999009132385,
				1.053868055343628
			],
			"translation":[
				-105.33773040771484,
				52.12725067138672,
				52.25735092163086
			]
		},
		{
			"mesh":3,
			"name":"CUBO 3",
			"rotation":[
				0,
				-0.7071068286895752,
				0,
				0.7071068286895752
			],
			"scale":[
				1.0622142553329468,
				0.9113999009132385,
				1.053868055343628
			],
			"translation":[
				-105.33773040771484,
				52.12725067138672,
				52.25735092163086
			]
		},
		{
			"mesh":4,
			"name":"CUBO 1",
			"rotation":[
				0,
				-0.7071068286895752,
				0,
				0.7071068286895752
			],
			"scale":[
				1.0622142553329468,
				0.9113999009132385,
				1.053868055343628
			],
			"translation":[
				-105.33773040771484,
				52.12725067138672,
				52.25735092163086
			]
		},
		{
			"mesh":5,
			"name":"CUBO 6",
			"rotation":[
				0,
				-0.7071068286895752,
				0,
				0.7071068286895752
			],
			"scale":[
				1.0622142553329468,
				0.9113999009132385,
				1.053868055343628
			],
			"translation":[
				-105.33773040771484,
				52.12725067138672,
				52.25735092163086
			]
		},
		{
			"mesh":6,
			"name":"CUBO 5",
			"rotation":[
				0,
				-0.7071068286895752,
				0,
				0.7071068286895752
			],
			"scale":[
				1.0622142553329468,
				0.9113999009132385,
				1.053868055343628
			],
			"translation":[
				-210.6643524169922,
				52.16108703613281,
				51.39701461791992
			]
		},
		{
			"mesh":7,
			"name":"TIMER",
			"rotation":[
				0,
				-0.7071068286895752,
				0,
				0.7071068286895752
			],
			"scale":[
				1.0622142553329468,
				0.9113999009132385,
				1.053868055343628
			],
			"translation":[
				-105.33773040771484,
				52.12725067138672,
				52.25735092163086
			]
		}
	],
	"materials":[
		{
			"doubleSided":true,
			"name":"Material.005",
			"normalTexture":{
				"index":0
			},
			"pbrMetallicRoughness":{
				"baseColorTexture":{
					"index":1
				},
				"metallicRoughnessTexture":{
					"index":2
				}
			}
		}
	],
	"meshes":[
		{
			"name":"Cube.014",
			"primitives":[
				{
					"attributes":{
						"POSITION":0,
						"NORMAL":1,
						"TEXCOORD_0":2
					},
					"indices":3,
					"material":0
				}
			]
		},
		{
			"name":"Cube.001",
			"primitives":[
				{
					"attributes":{
						"POSITION":4,
						"NORMAL":5,
						"TEXCOORD_0":6
					},
					"indices":7,
					"material":0
				}
			]
		},
		{
			"name":"Cube.556",
			"primitives":[
				{
					"attributes":{
						"POSITION":8,
						"NORMAL":9,
						"TEXCOORD_0":10
					},
					"indices":11,
					"material":0
				}
			]
		},
		{
			"name":"Cube.557",
			"primitives":[
				{
					"attributes":{
						"POSITION":12,
						"NORMAL":13,
						"TEXCOORD_0":14
					},
					"indices":11,
					"material":0
				}
			]
		},
		{
			"name":"Cube.558",
			"primitives":[
				{
					"attributes":{
						"POSITION":15,
						"NORMAL":16,
						"TEXCOORD_0":17
					},
					"indices":11,
					"material":0
				}
			]
		},
		{
			"name":"Cube.560",
			"primitives":[
				{
					"attributes":{
						"POSITION":18,
						"NORMAL":19,
						"TEXCOORD_0":20
					},
					"indices":11,
					"material":0
				}
			]
		},
		{
			"name":"Cube.561",
			"primitives":[
				{
					"attributes":{
						"POSITION":21,
						"NORMAL":22,
						"TEXCOORD_0":23
					},
					"indices":11,
					"material":0
				}
			]
		},
		{
			"name":"Cube.661",
			"primitives":[
				{
					"attributes":{
						"POSITION":24,
						"NORMAL":25,
						"TEXCOORD_0":26
					},
					"indices":27,
					"material":0
				}
			]
		}
	],
	"textures":[
		{
			"sampler":0,
			"source":0
		},
		{
			"sampler":0,
			"source":1
		},
		{
			"sampler":0,
			"source":2
		}
	],
	"images":[
		{
			"mimeType":"image/jpeg",
			"name":"Pipe001_1K-JPG_NormalGL",
			"uri":"Pipe001_1K-JPG_NormalGL.jpg"
		},
		{
			"mimeType":"image/jpeg",
			"name":"Pipe001_1K-JPG_Color",
			"uri":"Pipe001_1K-JPG_Color.jpg"
		},
		{
			"mimeType":"image/png",
			"name":"Pipe001_1K-JPG_Metalness-Pipe001_1K-JPG_Roughness",
			"uri":"Pipe001_1K-JPG_Metalness-Pipe001_1K-JPG_Roughness.png"
		}
	],
	"accessors":[
		{
			"bufferView":0,
			"componentType":5126,
			"count":24,
			"max":[
				47.63610076904297,
				41.89485549926758,
				47.67416763305664
			],
			"min":[
				-47.63610076904297,
				-41.89485549926758,
				-47.67416763305664
			],
			"type":"VEC3"
		},
		{
			"bufferView":1,
			"componentType":5126,
			"count":24,
			"type":"VEC3"
		},
		{
			"bufferView":2,
			"componentType":5126,
			"count":24,
			"type":"VEC2"
		},
		{
			"bufferView":3,
			"componentType":5123,
			"count":36,
			"type":"SCALAR"
		},
		{
			"bufferView":4,
			"componentType":5126,
			"count":106692,
			"max":[
				66.36007690429688,
				57.97383499145508,
				66.50371551513672
			],
			"min":[
				-164.75332641601562,
				-73.59669494628906,
				-266.4106140136719
			],
			"type":"VEC3"
		},
		{
			"bufferView":5,
			"componentType":5126,
			"count":106692,
			"type":"VEC3"
		},
		{
			"bufferView":6,
			"componentType":5126,
			"count":106692,
			"type":"VEC2"
		},
		{
			"bufferView":7,
			"componentType":5125,
			"count":343536,
			"type":"SCALAR"
		},
		{
			"bufferView":8,
			"componentType":5126,
			"count":24,
			"max":[
				-53.99189376831055,
				46.12361145019531,
				-55.386348724365234
			],
			"min":[
				-143.6839599609375,
				-46.461753845214844,
				-145.67649841308594
			],
			"type":"VEC3"
		},
		{
			"bufferView":9,
			"componentType":5126,
			"count":24,
			"type":"VEC3"
		},
		{
			"bufferView":10,
			"componentType":5126,
			"count":24,
			"type":"VEC2"
		},
		{
			"bufferView":11,
			"componentType":5123,
			"count":36,
			"type":"SCALAR"
		},
		{
			"bufferView":12,
			"componentType":5126,
			"count":24,
			"max":[
				-54.09048843383789,
				45.65095138549805,
				-154.4146728515625
			],
			"min":[
				-143.78256225585938,
				-45.970272064208984,
				-244.70480346679688
			],
			"type":"VEC3"
		},
		{
			"bufferView":13,
			"componentType":5126,
			"count":24,
			"type":"VEC3"
		},
		{
			"bufferView":14,
			"componentType":5126,
			"count":24,
			"type":"VEC2"
		},
		{
			"bufferView":15,
			"componentType":5126,
			"count":24,
			"max":[
				-54.240787506103516,
				46.008506774902344,
				45.25791549682617
			],
			"min":[
				-143.932861328125,
				-46.57685852050781,
				-45.0322380065918
			],
			"type":"VEC3"
		},
		{
			"bufferView":16,
			"componentType":5126,
			"count":24,
			"type":"VEC3"
		},
		{
			"bufferView":17,
			"componentType":5126,
			"count":24,
			"type":"VEC2"
		},
		{
			"bufferView":18,
			"componentType":5126,
			"count":24,
			"max":[
				48.181915283203125,
				42.1720085144043,
				-152.16146850585938
			],
			"min":[
				-47.182281494140625,
				-43.035953521728516,
				-247.62948608398438
			],
			"type":"VEC3"
		},
		{
			"bufferView":19,
			"componentType":5126,
			"count":24,
			"type":"VEC3"
		},
		{
			"bufferView":20,
			"componentType":5126,
			"count":24,
			"type":"VEC2"
		},
		{
			"bufferView":21,
			"componentType":5126,
			"count":24,
			"max":[
				48.181915283203125,
				42.1720085144043,
				-152.16146850585938
			],
			"min":[
				-47.182281494140625,
				-43.035953521728516,
				-247.62948608398438
			],
			"type":"VEC3"
		},
		{
			"bufferView":22,
			"componentType":5126,
			"count":24,
			"type":"VEC3"
		},
		{
			"bufferView":23,
			"componentType":5126,
			"count":24,
			"type":"VEC2"
		},
		{
			"bufferView":24,
			"componentType":5126,
			"count":2800,
			"max":[
				-5.676341533660889,
				49.21885299682617,
				-61.96918487548828
			],
			"min":[
				-39.823123931884766,
				39.7990608215332,
				-137.93771362304688
			],
			"type":"VEC3"
		},
		{
			"bufferView":25,
			"componentType":5126,
			"count":2800,
			"type":"VEC3"
		},
		{
			"bufferView":26,
			"componentType":5126,
			"count":2800,
			"type":"VEC2"
		},
		{
			"bufferView":27,
			"componentType":5123,
			"count":10068,
			"type":"SCALAR"
		}
	],
	"bufferViews":[
		{
			"buffer":0,
			"byteLength":288,
			"byteOffset":0,
			"target":34962
		},
		{
			"buffer":0,
			"byteLength":288,
			"byteOffset":288,
			"target":34962
		},
		{
			"buffer":0,
			"byteLength":192,
			"byteOffset":576,
			"target":34962
		},
		{
			"buffer":0,
			"byteLength":72,
			"byteOffset":768,
			"target":34963
		},
		{
			"buffer":0,
			"byteLength":1280304,
			"byteOffset":840,
			"target":34962
		},
		{
			"buffer":0,
			"byteLength":1280304,
			"byteOffset":1281144,
			"target":34962
		},
		{
			"buffer":0,
			"byteLength":853536,
			"byteOffset":2561448,
			"target":34962
		},
		{
			"buffer":0,
			"byteLength":1374144,
			"byteOffset":3414984,
			"target":34963
		},
		{
			"buffer":0,
			"byteLength":288,
			"byteOffset":4789128,
			"target":34962
		},
		{
			"buffer":0,
			"byteLength":288,
			"byteOffset":4789416,
			"target":34962
		},
		{
			"buffer":0,
			"byteLength":192,
			"byteOffset":4789704,
			"target":34962
		},
		{
			"buffer":0,
			"byteLength":72,
			"byteOffset":4789896,
			"target":34963
		},
		{
			"buffer":0,
			"byteLength":288,
			"byteOffset":4789968,
			"target":34962
		},
		{
			"buffer":0,
			"byteLength":288,
			"byteOffset":4790256,
			"target":34962
		},
		{
			"buffer":0,
			"byteLength":192,
			"byteOffset":4790544,
			"target":34962
		},
		{
			"buffer":0,
			"byteLength":288,
			"byteOffset":4790736,
			"target":34962
		},
		{
			"buffer":0,
			"byteLength":288,
			"byteOffset":4791024,
			"target":34962
		},
		{
			"buffer":0,
			"byteLength":192,
			"byteOffset":4791312,
			"target":34962
		},
		{
			"buffer":0,
			"byteLength":288,
			"byteOffset":4791504,
			"target":34962
		},
		{
			"buffer":0,
			"byteLength":288,
			"byteOffset":4791792,
			"target":34962
		},
		{
			"buffer":0,
			"byteLength":192,
			"byteOffset":4792080,
			"target":34962
		},
		{
			"buffer":0,
			"byteLength":288,
			"byteOffset":4792272,
			"target":34962
		},
		{
			"buffer":0,
			"byteLength":288,
			"byteOffset":4792560,
			"target":34962
		},
		{
			"buffer":0,
			"byteLength":192,
			"byteOffset":4792848,
			"target":34962
		},
		{
			"buffer":0,
			"byteLength":33600,
			"byteOffset":4793040,
			"target":34962
		},
		{
			"buffer":0,
			"byteLength":33600,
			"byteOffset":4826640,
			"target":34962
		},
		{
			"buffer":0,
			"byteLength":22400,
			"byteOffset":4860240,
			"target":34962
		},
		{
			"buffer":0,
			"byteLength":20136,
			"byteOffset":4882640,
			"target":34963
		}
	],
	"samplers":[
		{
			"magFilter":9729,
			"minFilter":9987
		}
	],
	"buffers":[
		{
			"byteLength":4902776,
			"uri":"METNUM.bin"
		}
	]
}
